inDegrees=no
num_controls=7
num_derivatives=13
num_iterations=108
num_multipliers=7
num_parameters=0
num_slacks=7
num_states=26
objective=0.476940
objective_accelerations=0.044616
objective_balance=0.003626
objective_effort=0.040780
objective_height=0.382260
objective_ligament=0.005659
solver_duration=1635.622509
status=Solve_Succeeded
success=true
DataType=double
version=3
OpenSimVersion=4.5
endheader
time	/jointset/ground_pelvis/pelvis_tilt/value	/jointset/ground_pelvis/pelvis_tx/value	/jointset/ground_pelvis/pelvis_ty/value	/jointset/hip_l/hip_flexion_l/value	/jointset/hip_l/hip_adduction_l/value	/jointset/hip_l/hip_rotation_l/value	/jointset/back/lumbar_extension/value	/jointset/patellofemoral_l/patellar_flexion_l/value	/jointset/knee_l/knee_flexion_l/value	/jointset/knee_l/knee_adduction_l/value	/jointset/knee_l/knee_rotation_l/value	/jointset/ankle_l/ankle_angle_l/value	/jointset/subtalar_l/subtalar_angle_l/value	/jointset/ground_pelvis/pelvis_tilt/speed	/jointset/ground_pelvis/pelvis_tx/speed	/jointset/ground_pelvis/pelvis_ty/speed	/jointset/hip_l/hip_flexion_l/speed	/jointset/hip_l/hip_adduction_l/speed	/jointset/hip_l/hip_rotation_l/speed	/jointset/back/lumbar_extension/speed	/jointset/patellofemoral_l/patellar_flexion_l/speed	/jointset/knee_l/knee_flexion_l/speed	/jointset/knee_l/knee_adduction_l/speed	/jointset/knee_l/knee_rotation_l/speed	/jointset/ankle_l/ankle_angle_l/speed	/jointset/subtalar_l/subtalar_angle_l/speed	/forceset/tau_hip_flexion_l	/forceset/tau_hip_adduction_l	/forceset/tau_hip_rotation_l	/forceset/tau_knee_flexion_l	/forceset/tau_ankle_angle_l	/forceset/tau_subtalar_angle_l	/forceset/tau_lumbar_extension	lambda_cid13_p0	lambda_cid13_p1	lambda_cid13_p2	lambda_cid13_p3	lambda_cid13_p4	lambda_cid13_p5	lambda_cid14_p0	/jointset/ground_pelvis/pelvis_tilt/accel	/jointset/ground_pelvis/pelvis_tx/accel	/jointset/ground_pelvis/pelvis_ty/accel	/jointset/hip_l/hip_flexion_l/accel	/jointset/hip_l/hip_adduction_l/accel	/jointset/hip_l/hip_rotation_l/accel	/jointset/back/lumbar_extension/accel	/jointset/patellofemoral_l/patellar_flexion_l/accel	/jointset/knee_l/knee_flexion_l/accel	/jointset/knee_l/knee_adduction_l/accel	/jointset/knee_l/knee_rotation_l/accel	/jointset/ankle_l/ankle_angle_l/accel	/jointset/subtalar_l/subtalar_angle_l/accel	gamma_cid13_p0	gamma_cid13_p1	gamma_cid13_p2	gamma_cid13_p3	gamma_cid13_p4	gamma_cid13_p5	gamma_cid14_p0
0	-0.03679859699819823	0.05666690577245872	0.9203420177682229	0.3085816938045678	-0.2956331970362114	-0.3014491593514425	-0.3879492264334186	0.249926942118494	0.2499269421184919	-0.1745328231570908	-0.1743775815357036	-0.0008036623358878681	0.0004431173460308169	0	0	0	0	0	0	0	0	0	0	0	0	0	0.08178111479429764	-0.04470153976175607	-0.02105881233843359	-0.251761622080695	0.1993576798768636	-0.02345235227358892	-0.00660947650467326	20.41947700909034	4.035940359254982	1.842510339630349	10.7522153135011	-617.7343568496063	-67.55841257722882	-23.19161545199428	-1.076727179632576	-2.165002433546102	-0.964475150358981	9.643695346266819	-0.9248235921878699	3.404108655058165	-7.775201901108749	9.603604849922949	9.603604849929463	1.166600060072565	-0.1100425187874561	1.527899717707124	-0.4716695610550919	1.117477107339182e-08	1.483248207608656e-07	1.385098434153669e-07	-5.239620330757361e-08	2.638780865162091e-07	-2.221468616095703e-08	-1.086912782239266e-08
0.01	-0.03684819794463744	0.05656229451266685	0.9202952607239464	0.3090481854233908	-0.2956786928358378	-0.3012789826874789	-0.3883302759382772	0.2503961954064819	0.2503961954065017	-0.1744767859031472	-0.1743793295674381	-0.0007268698244758737	0.0004204427138741846	-0.009832074262269808	-0.02057741657151816	-0.009272704622717075	0.09244604775168895	-0.008965098175245287	0.0338074512480302	-0.07507925007643962	0.09328223196752068	0.09328223196754308	0.01128807788721421	-0.0003199419981623656	0.01558205701082575	-0.004316638298931592	0.07200236617721867	-0.05160096083373723	-0.02023359158931743	-0.2468379015598993	0.1955423706544445	-0.01210393220578189	0.003773332833805858	19.41979326227838	-0.6409425935981696	2.500525139484095	7.359380877698295	-623.4986068380333	-76.39360363285222	-23.19712541580749	-0.9232458749120841	-1.952396440337126	-0.8968097077329136	8.917208008896521	-0.8622886903835928	3.334867380680208	-7.204688926527282	9.105270699091994	9.105270699091264	1.122044546715614	0.0114987429706331	1.606898417139138	-0.3789581192239325	-2.905767611740759e-08	1.569263068309357e-07	1.600809010105916e-07	9.581715888605825e-09	3.849135444021579e-08	-5.023945883228093e-08	-8.973039688523456e-09
0.02	-0.03699347929877869	0.05626225205288303	0.9201581483155419	0.3104135672235842	-0.2958098267692545	-0.3007775707068335	-0.3894281984170232	0.2517812186799579	0.2517812186799603	-0.1743054412915668	-0.1743833832624539	-0.0004875487980818335	0.0003611422677459042	-0.01913608154005289	-0.039086239998391	-0.01807107282561959	0.1797780362744337	-0.01712762675811909	0.06624706333625571	-0.1433745947774983	0.1831539970920565	0.183153997092069	0.02306147152121901	-0.0004611326642769932	0.03250570299640501	-0.007325162794333105	0.06222361756014432	-0.05850038190572326	-0.01940837084043523	-0.2419141810390642	0.1917270614320305	-0.0007555121379749749	0.01415614217228843	18.4936715535299	-5.329313147353324	3.158780977757794	3.85084979202422	-628.1642841416923	-85.1374728471084	-23.21314931112475	-0.9711137827351669	-1.751283804617101	-0.8696078663960713	8.620883500477984	-0.7643096737135844	3.130540823097228	-6.418420826032532	8.921511481325982	8.921511481326046	1.263663209430661	-0.07429225237791752	1.796217512657754	-0.2100468003491125	-6.9290123308207e-08	1.655277929010059e-07	1.816519586058163e-07	7.155963508478526e-08	-1.868953776357776e-07	-7.826423150360484e-08	-7.076951554654257e-09
0.03	-0.03722989086054889	0.05578422858858756	0.9199345282448116	0.3126330115731413	-0.296019689309784	-0.2999579057980695	-0.3911845905123841	0.2540504937961069	0.2540504937961155	-0.174015733367823	-0.1743886729804614	-7.591462005311998e-05	0.0002758660377268475	-0.02810230511735632	-0.05649546108789909	-0.0266576252614238	0.263832535458757	-0.02483176136055158	0.09756839478094387	-0.2077460837289977	0.2703536425408395	0.2703536425408137	0.03474813050500304	-0.0005931201815478668	0.04966992372801046	-0.009768980616861603	0.05798149865248127	-0.05261655909875452	-0.01873976285528423	-0.2373726359079287	0.1864532998111292	-0.003252577440358601	0.01737915127994259	16.70423571557919	-4.010027002128097	3.038124020532696	5.176003623493938	-628.1679999283441	-81.79110891565296	-23.23882744814853	-0.852791820482326	-1.732277933028394	-0.8539198130529135	8.255979675585264	-0.7715446672087724	3.115280940370496	-6.422851844757473	8.567084944810979	8.56708494480511	1.101415831895792	0.01792757661535721	1.653842051170114	-0.2674302994157784	-9.008688483228865e-08	1.046784570223254e-07	2.766160544617648e-07	7.510861609407534e-08	-2.445555520328894e-07	-1.457792617785613e-07	-2.522330524356568e-08
0.04	-0.037554647693144	0.05513280557901463	0.9196248944735471	0.3156846502241739	-0.2963062090590777	-0.2988285572478144	-0.3935799652802704	0.2571813441403791	0.2571813441403853	-0.173613109136427	-0.1743951666580304	0.0005028253048433393	0.0001649754242403019	-0.03680513570482707	-0.07376614905388325	-0.03527381293244441	0.3462168965701074	-0.03245906851101042	0.1281837916342691	-0.2711711292824413	0.3554690427158828	0.3554690427158163	0.04564473305052745	-0.0007019245781372887	0.06592685236994238	-0.01244803948783285	0.05373937974480007	-0.04673273629178994	-0.0180711548701739	-0.2328310907767981	0.1811795381902243	-0.005749642742747136	0.02060216038758732	14.98291795909614	-2.699012947535263	2.914611176789308	6.386230603454806	-627.1681713744197	-78.35563952141699	-23.27335909029595	-0.9184351847685663	-1.723577179912379	-0.875534913439353	8.286855885883424	-0.7489441833188522	2.989353904824644	-6.229132146421361	8.50466242657803	8.504662426577632	1.10565192177874	-0.06965562824163135	1.614759094722976	-0.2570950100376872	-1.104829105694277e-07	4.239714543336133e-08	3.730934088385531e-07	7.745287672837803e-08	-2.987574468902306e-07	-2.141085241690565e-07	-4.378290515562722e-08
